HIERARCHY
ROOT Hips
{
     OFFSET 1.88212 96.90440 -13.34250
     CHANNELS 6 Xposition Yposition Zposition Zrotation Xrotation Yrotation
     JOINT Spine
     {
          OFFSET 0.00000 11.89050 0.00000
          CHANNELS 3 Zrotation Xrotation Yrotation
          JOINT Spine1
          {
               OFFSET -0.00000 25.65740 0.12766
               CHANNELS 3 Zrotation Xrotation Yrotation
               JOINT HEad
               {
                    OFFSET 0.00000 8.73416 0.01134
                    CHANNELS 3 Zrotation Xrotation Yrotation
                    End Site
                    {
                         OFFSET -0.29000 12.77420 2.51395
                    }
               }
               JOINT LeftShoulder1
               {
                    OFFSET 8.99000 -0.36225 -0.22000
                    CHANNELS 3 Zrotation Xrotation Yrotation
                    JOINT LeftArm
                    {
                         OFFSET 10.28270 -0.00338 0.32212
                         CHANNELS 3 Zrotation Xrotation Yrotation
                         JOINT LeftForeArm
                         {
                              OFFSET 32.76690 0.09914 -1.42434
                              CHANNELS 3 Zrotation Xrotation Yrotation
                              JOINT LeftHand
                              {
                                   OFFSET 27.56430 0.08536 1.02216
                                   CHANNELS 3 Zrotation Xrotation Yrotation
                                   End Site
                                   {
                                        OFFSET 16.74430 -0.60000 1.50291
                                   }
                              }
                         }
                    }
               }
               JOINT RightShoulder
               {
                    OFFSET -8.99000 -0.36225 -0.22000
                    CHANNELS 3 Zrotation Xrotation Yrotation
                    JOINT RightArm
                    {
                         OFFSET -10.28270 -0.00338 0.32212
                         CHANNELS 3 Zrotation Xrotation Yrotation
                         JOINT RightForeArm
                         {
                              OFFSET -32.89710 0.09914 -1.42434
                              CHANNELS 3 Zrotation Xrotation Yrotation
                              JOINT RightHand
                              {
                                   OFFSET -27.49210 0.08536 1.02216
                                   CHANNELS 3 Zrotation Xrotation Yrotation
                                   End Site
                                   {
                                        OFFSET -16.63120 -0.60000 1.50291
                                   }
                              }
                         }
                    }
               }
          }
     }
     JOINT LeftUpLeg
     {
          OFFSET 8.94580 -8.66707 0.10165
          CHANNELS 3 Zrotation Xrotation Yrotation
          JOINT LeftLeg
          {
               OFFSET 0.00000 -44.42270 1.37270
               CHANNELS 3 Zrotation Xrotation Yrotation
               JOINT LeftFoot
               {
                    OFFSET -0.25355 -42.09240 -1.46059
                    CHANNELS 3 Zrotation Xrotation Yrotation
                    JOINT LeftToes
                    {
                         OFFSET -0.04000 -4.41509 8.49910
                         CHANNELS 3 Zrotation Xrotation Yrotation
                         End Site
                         {
                              OFFSET 0.08000 -0.04745 9.77979
                         }
                    }
               }
          }
     }
     JOINT RightUpLeg
     {
          OFFSET -8.94580 -8.66707 0.10165
          CHANNELS 3 Zrotation Xrotation Yrotation
          JOINT RightLeg
          {
               OFFSET 0.00000 -44.42270 1.37270
               CHANNELS 3 Zrotation Xrotation Yrotation
               JOINT RightFoot
               {
                    OFFSET 0.25355 -42.09240 -1.46059
                    CHANNELS 3 Zrotation Xrotation Yrotation
                    JOINT RightToes
                    {
                         OFFSET 0.04000 -4.41509 8.49910
                         CHANNELS 3 Zrotation Xrotation Yrotation
                         End Site
                         {
                              OFFSET -0.08000 -0.13745 9.77979
                         }
                    }
               }
          }
     }
}
MOTION
Frames: 17
Frame Time: 0.01667
-883.84814 91.56387 -225.88907 9.11944 11.86001 150.57614 -3.08061 -10.84322 4.29072 0.06521 0.12299 0.01806 -13.18215 14.62333 49.21465 3.95360 8.98211 -2.68770 -96.03034 -64.32081 -109.65778 -18.22546 36.65772 -87.77950 3.69922 4.45398 3.97676 27.32807 11.78500 4.78398 38.68892 -2.50864 64.35649 16.72908 18.35591 75.91718 -10.06120 6.84421 3.49840 1.10640 -17.92943 11.04353 16.50582 28.28358 -11.45370 -5.97129 0.13213 -0.00652 -1.54001 -14.85450 7.37618 -8.61095 -7.63222 -15.04772 -27.45134 43.56091 28.21581 35.46775 0.42730 0.63405 2.43042 5.99450 -6.46805 
-884.79187 91.31567 -225.00333 9.08397 11.74337 150.66144 -1.93435 -9.02845 5.02005 0.06110 0.10906 0.02647 -13.10382 15.31462 48.21301 3.35791 7.70797 -2.69392 -97.10556 -65.72192 -110.46541 -19.20757 36.79137 -87.18697 3.89832 4.74093 3.89435 25.99150 10.45574 5.36410 40.12095 -4.13690 65.45611 16.92029 18.59646 75.44530 -10.02625 7.21894 3.82623 -1.19158 -18.81457 9.32669 19.97251 25.36711 -11.53071 -19.32183 -0.20419 0.40942 9.10769 -13.13132 7.87401 -8.89310 -10.38699 -18.06928 -30.43487 49.55188 32.44986 54.39946 0.57929 0.37479 -24.23838 -0.94654 -2.21392 
-885.87756 90.97699 -223.97824 9.06481 11.67567 150.90742 -0.96779 -7.21978 5.52357 -0.00047 0.00427 0.00194 -12.01372 17.21028 46.49961 3.01352 6.51606 -2.38961 -97.81641 -66.64564 -110.64309 -19.89478 36.81284 -86.67348 4.29066 5.40578 2.87042 24.99100 9.27454 5.99777 41.52819 -5.71079 66.31374 16.95123 18.92600 75.37804 -9.23677 7.32139 3.49306 -3.16071 -19.24420 7.65440 22.60011 22.76163 -8.90867 -11.51135 -0.15033 -0.10569 -1.19418 -11.73662 7.08806 -9.66610 -12.65075 -20.88324 -32.00993 56.29121 36.84169 37.72092 -0.36367 -0.37115 3.59380 11.80443 -2.00439 
-887.09814 90.56646 -222.82170 9.05478 11.66237 151.32510 -0.14718 -5.46738 5.82961 -0.00342 -0.00376 0.00173 -9.93323 19.94891 44.01880 2.79634 5.24865 -1.90099 -98.06871 -67.26858 -110.18363 -20.40897 36.70327 -86.21702 4.30248 5.78577 2.60034 24.18861 8.06581 6.68627 42.92043 -7.25504 67.00647 16.90203 19.33468 75.59257 -9.11290 7.53159 3.50385 -4.74837 -19.25043 6.08500 22.40306 19.36611 -3.17506 -19.58508 0.15670 0.33165 6.24052 -9.23442 3.46144 -10.89642 -14.07822 -22.45056 -30.72904 62.01175 39.17871 20.90914 0.14433 -0.58891 13.73077 5.62205 1.29797 
-888.40851 90.07143 -221.56505 9.03934 11.69992 151.91533 0.56228 -3.80830 5.97054 -0.00191 -0.00571 0.00265 -6.72209 23.38605 40.81818 2.73762 4.03495 -1.28796 -97.87395 -67.71510 -109.18673 -20.83059 36.47273 -85.82832 4.35056 6.35287 1.71968 23.56677 6.93292 7.35498 48.23538 -9.92227 68.52531 17.03972 23.52507 74.46088 -8.55026 7.58185 3.12635 -5.98699 -18.90079 4.64158 22.55482 16.03889 2.70612 -13.93384 -0.23354 -0.17307 -0.11953 -6.02679 0.48052 -12.22604 -14.68076 -22.85158 -26.79114 64.85443 38.20718 5.67030 0.34208 -0.10956 21.53623 0.05737 16.80001 
-889.77209 89.48933 -220.24023 9.01335 11.77089 152.66234 1.19977 -2.27193 5.98335 -0.00068 -0.00585 0.00381 -2.23403 27.25606 36.87252 2.82907 2.91619 -0.63400 -97.33620 -68.07524 -107.83440 -21.21788 36.15854 -85.49953 4.22545 6.75255 1.29161 23.28942 5.92603 8.07009 51.93510 -11.91150 69.60458 16.70430 22.88820 78.07076 -4.39044 8.73877 -0.84691 -6.94693 -18.25233 3.32751 22.87227 12.15472 7.78432 -22.54961 0.16104 0.32101 7.84496 -3.20167 -2.77521 -13.29659 -14.56044 -22.17481 -19.87691 65.42554 33.81895 -8.49068 0.26024 0.19159 33.02786 -8.04582 23.99707 
-891.18457 88.85827 -218.87138 8.98701 11.84967 153.53598 1.81904 -0.87542 5.90271 0.00006 -0.00574 0.00418 2.40003 30.38533 32.78351 3.04472 1.92130 -0.01576 -96.61742 -68.41639 -106.34830 -21.61983 35.80566 -85.24976 4.15630 7.17673 0.47680 23.17129 5.02878 8.75585 54.63462 -13.37773 70.39822 16.38992 23.17493 80.06391 -2.06226 9.15671 -3.02016 -7.65398 -17.37764 2.15718 23.33459 8.33407 12.83465 -20.75448 -0.10727 -0.03789 5.45917 0.43004 -5.16651 -13.85619 -13.85561 -20.51521 -11.51288 64.13629 27.38614 -21.87893 0.14102 0.32312 41.30759 -16.58619 31.00418 
-892.63586 88.23830 -217.45497 8.99055 11.90716 154.50041 2.48523 0.37241 5.75079 0.00105 -0.00586 0.00346 7.05218 32.81752 28.67557 3.35026 1.07417 0.49481 -95.91268 -68.77704 -104.95344 -22.06234 35.46772 -85.09008 4.08601 7.43653 -0.03757 23.08798 4.23285 9.29162 56.73929 -14.47571 71.11343 16.08707 23.85595 81.20975 -1.46965 9.35928 -3.63505 -7.45734 -16.56420 2.27307 23.24685 4.11019 16.37718 -29.03724 0.09595 0.32361 13.31035 3.50088 -7.70421 -13.76554 -12.70143 -18.00284 -3.75281 61.29925 20.73277 -34.69815 0.02977 0.36204 51.48095 -26.34765 35.49235 
-894.12555 87.68143 -215.99277 9.06080 11.93075 155.51837 3.25459 1.47959 5.54016 0.00208 -0.00570 0.00203 11.58245 34.61575 24.68751 3.70600 0.39780 0.85418 -95.42938 -69.15008 -103.85370 -22.55546 35.19957 -85.04240 4.10695 7.58203 -0.74081 23.06433 3.56086 9.61715 58.43332 -15.32301 71.84425 15.84659 24.69729 81.93758 -1.26924 9.42216 -3.85241 -6.58934 -15.99008 3.50397 22.02760 1.40737 17.52806 -24.63642 -0.03313 -0.10308 8.52226 4.85659 -8.49115 -12.83795 -11.26214 -14.75811 -1.25077 56.81604 17.70077 -30.35043 0.01392 -0.09393 41.98521 -37.76503 30.67813 
-895.64746 87.21255 -214.47736 9.24357 11.92259 156.55203 4.17248 2.47276 5.27701 0.00297 -0.00505 0.00025 15.85917 35.86346 20.95427 4.03970 -0.06205 1.04879 -95.38004 -69.48241 -103.24870 -23.09770 35.06077 -85.11883 4.17376 7.49883 -1.15460 23.12737 3.06679 9.70555 59.84271 -16.00958 72.63646 15.69610 25.60919 82.52596 -1.64044 9.47047 -3.62492 -5.21143 -15.83982 5.66040 19.81647 -0.16800 16.70960 -26.01594 0.02241 -0.00500 9.75030 4.46884 -9.19717 -11.11960 -9.64793 -10.95120 0.82251 52.11520 13.78089 -26.49624 -0.01602 -0.10702 41.07737 -31.31614 28.22116 
-897.20190 86.88766 -212.92880 9.54818 11.91874 157.56439 5.23054 3.39425 4.97111 0.00364 -0.00391 -0.00168 19.77658 36.66389 17.58697 4.30435 -0.27110 1.08411 -95.91003 -69.69803 -103.22838 -23.68964 35.09842 -85.33195 4.30497 7.22769 -1.60311 23.30164 2.79204 9.54743 61.05613 -16.59353 73.47169 15.63530 26.60325 83.13758 -1.93115 9.49175 -3.51270 -3.84618 -15.68818 7.61332 15.66926 0.42277 15.17223 -22.53733 -0.06648 0.02472 7.57154 1.64353 -9.73590 -8.78438 -7.90686 -6.74416 1.78735 47.43826 9.68407 -22.94126 -0.01910 -0.09068 18.65044 -37.38380 4.85474 
-898.77759 86.74226 -211.36957 9.97535 11.96224 158.53082 6.40630 4.28905 4.61902 0.00416 -0.00243 -0.00374 23.26784 37.13203 14.65960 4.47909 -0.21640 0.96639 -97.02464 -69.72108 -103.72926 -24.33118 35.34840 -85.68002 4.44579 6.78451 -1.82308 23.59719 2.74999 9.13811 62.14100 -17.12105 74.29268 15.66458 27.71597 83.86014 -2.39255 9.53410 -3.38298 -2.42078 -15.58745 9.39677 12.21273 1.03358 13.38768 -20.58751 -0.03979 0.00973 6.59091 -0.77405 -9.90492 -5.98759 -6.04122 -2.29860 1.44298 42.95622 5.63524 -19.55950 -0.01676 -0.08101 26.71060 -32.71988 13.29593 
-900.37915 86.76804 -209.80450 10.49805 12.08690 159.43738 7.65502 5.18629 4.21175 0.00456 -0.00088 -0.00584 26.30598 37.37976 12.20611 4.56134 0.07325 0.70062 -98.51983 -69.48971 -104.49764 -25.01246 35.82890 -86.15569 4.60826 6.26572 -2.03949 24.02215 2.90859 8.49238 63.07022 -17.60474 75.00446 15.77275 28.91029 84.71750 -2.72460 9.59310 -3.45757 -0.93149 -15.54799 11.02435 9.31977 1.98151 11.48486 -18.00552 -0.03144 0.01748 4.74892 -2.78188 -9.92738 -3.68071 -4.65848 1.57704 0.36950 39.45214 2.30497 -16.43519 -0.01310 -0.07163 20.03486 -32.21793 6.57162 
-902.00378 86.93329 -208.25803 11.10393 12.31400 160.25343 8.94739 6.11139 3.75326 0.00483 0.00048 -0.00790 28.89916 37.50524 10.22526 4.62155 0.53390 0.29478 -100.11817 -69.01800 -105.27377 -31.23758 38.49737 -85.21116 6.94139 10.09446 -0.58335 24.58533 3.20057 7.63803 63.77974 -18.06697 75.49493 15.94566 30.11858 85.69961 -3.11755 9.73302 -3.59235 0.63967 -15.86790 12.52669 6.24640 4.87605 9.36398 -15.40185 -0.02684 0.05632 3.24784 -5.88373 -9.90405 -1.77676 -3.65638 4.95513 -0.99211 36.81554 -0.55536 -13.63076 -0.00971 -0.06048 21.10730 -30.14899 7.63570 
-903.63824 87.18970 -206.74634 11.78733 12.63901 160.95180 10.26507 7.07141 3.24508 0.00508 0.00065 -0.00971 31.07585 37.58207 8.69566 4.70170 1.09525 -0.26666 -101.48382 -68.32249 -105.82314 -41.18005 41.46062 -82.22943 1.77095 -0.00755 -4.62433 25.26623 3.54887 6.62775 64.22537 -18.54172 75.67958 16.15831 31.26237 86.75810 -3.39505 9.93926 -3.85024 2.67898 -17.63263 14.12419 3.57284 10.35809 7.05134 -13.18517 -0.01455 0.06735 2.15287 -9.41647 -9.64423 -0.18096 -2.90854 7.88723 -2.38465 34.88688 -3.06172 -11.20131 -0.00678 -0.04850 19.06092 -28.83804 5.42846 
-905.27588 87.50893 -205.28986 12.54267 13.04331 161.49844 11.57265 8.05526 2.71637 -0.00001 0.00343 -0.01047 32.90377 37.65462 7.56906 4.88771 1.71012 -0.57166 -96.81648 -63.98873 -99.52234 -41.40834 42.41848 -83.05094 9.96718 17.70557 1.17349 25.81197 3.86370 5.68971 66.55170 -21.76894 73.48151 17.13857 35.38816 89.98589 -3.68307 10.20090 -4.06471 4.62439 -19.74658 15.61758 2.01139 16.84687 4.75333 -11.65723 -0.00375 0.05391 1.57394 -12.89703 -9.16010 1.18840 -2.29385 10.42119 -3.66803 33.48607 -5.26059 -9.15791 -0.00442 -0.03678 19.05608 -27.21741 5.07946 
-906.91559 87.87967 -203.89737 13.35822 13.49431 161.85976 12.85473 9.04623 2.19057 0.00065 0.00538 -0.01190 34.38560 37.75237 6.81709 5.10354 2.37392 -0.71593 -91.35141 -57.32764 -92.49628 -36.00971 41.82809 -86.38573 -2.88475 -6.00976 -7.81296 26.35444 4.16226 4.64640 67.92335 -23.71839 72.29385 17.68212 37.95185 91.75379 -3.84461 10.46201 -4.24086 6.37331 -22.15032 16.98461 1.80094 23.77839 2.23063 -10.92516 0.00349 0.02761 1.56356 -16.04968 -8.42009 2.38450 -1.72620 12.59912 -4.78617 32.42872 -7.16083 -7.48847 -0.00237 -0.02677 18.57631 -25.65549 4.06962 
